<?xml version="1.0" encoding="UTF-8"?>
<svg id="Layer_2" data-name="Layer 2" xmlns="http://www.w3.org/2000/svg" viewBox="0 0 537.55 454.76">
  <defs>
    <style>
      .cls-1, .cls-2, .cls-3, .cls-4 {
        fill: #fff;
      }

      .cls-1, .cls-5, .cls-6, .cls-7, .cls-8, .cls-9, .cls-4, .cls-10, .cls-11, .cls-12, .cls-13 {
        stroke: #263238;
      }

      .cls-1, .cls-5, .cls-7, .cls-14, .cls-8 {
        stroke-miterlimit: 10;
      }

      .cls-1, .cls-5, .cls-7, .cls-14, .cls-8, .cls-9, .cls-4, .cls-11, .cls-15, .cls-16 {
        stroke-width: 1.11px;
      }

      .cls-5, .cls-6, .cls-11, .cls-12 {
        fill: #263238;
      }

      .cls-6 {
        stroke-width: .8px;
      }

      .cls-6, .cls-17, .cls-9, .cls-4, .cls-10, .cls-11, .cls-12, .cls-15, .cls-16, .cls-13 {
        stroke-linecap: round;
        stroke-linejoin: round;
      }

      .cls-17, .cls-14, .cls-8, .cls-9, .cls-10, .cls-15, .cls-16, .cls-13 {
        fill: none;
      }

      .cls-17, .cls-16 {
        stroke: #fff;
      }

      .cls-17, .cls-13 {
        stroke-width: 2.22px;
      }

      .cls-7, .cls-18 {
        fill: #92e3a9;
      }

      .cls-14, .cls-15 {
        stroke: #696969;
      }

      .cls-3 {
        opacity: .7;
      }

      .cls-10 {
        stroke-width: .91px;
      }

      .cls-19 {
        fill: #a3a3a3;
      }

      .cls-12 {
        stroke-width: .98px;
      }
    </style>
  </defs>
  <g id="Floor">
    <g>
      <g>
        <path class="cls-18" d="M361.42,9.11s-82.64-29.38-163.76,17.4C116.54,73.29,75.61,166.16,40.46,240.55c-35.15,74.39-14.92,150.06,47.01,184.57,61.92,34.5,104.03-16.36,190.9-18.84,86.87-2.48,110.23,9.94,182.32-39.13,72.09-49.07,85.12-164.97,28.25-250.73C432.07,30.67,361.42,9.11,361.42,9.11Z"/>
        <path class="cls-3" d="M361.42,9.11s-82.64-29.38-163.76,17.4C116.54,73.29,75.61,166.16,40.46,240.55c-35.15,74.39-14.92,150.06,47.01,184.57,61.92,34.5,104.03-16.36,190.9-18.84,86.87-2.48,110.23,9.94,182.32-39.13,72.09-49.07,85.12-164.97,28.25-250.73C432.07,30.67,361.42,9.11,361.42,9.11Z"/>
      </g>
      <g>
        <path class="cls-18" d="M129.14,195.79c3.29-.78,9.25-5.47,9.25-5.47,.06-.05-4.28-2.99-4.58-3.14-3.42-1.78-11.08-3.22-14.15-.18-2.21,2.19-1.73,5.68,.57,7.58,2.35,1.94,6.1,1.88,8.91,1.21Z"/>
        <path class="cls-18" d="M144.43,211.77c2.85-1.56,7.08-7.19,7.42-7.64,3.13,2.39,6.53,4.58,10.1,6.61,2.04,1.16,4.13,2.27,6.24,3.36-1.04-.35-1.97-.66-2.1-.69-3.77-.82-11.53-.18-13.7,3.56-1.56,2.69-.17,5.94,2.55,7.17,2.78,1.25,6.38,.2,8.91-1.18,2.56-1.4,6.27-6.13,7.23-7.39,.81,.41,1.62,.82,2.44,1.23,3.91,1.94,7.82,3.86,11.6,5.86,1.33,.7,2.62,1.45,3.91,2.19-.92-.31-1.7-.57-1.82-.59-3.77-.82-11.53-.18-13.7,3.56-1.56,2.69-.17,5.94,2.55,7.17,2.78,1.25,6.38,.2,8.91-1.18,2.45-1.34,5.9-5.67,7.06-7.17,1.3,.8,2.6,1.59,3.82,2.42,.82,.59,1.65,1.09,2.44,1.73,.8,.61,1.59,1.22,2.37,1.82,1.46,1.21,2.98,2.45,4.38,3.66,.98,.84,1.89,1.65,2.82,2.47-1.32-.72-3.92-2.07-4.16-2.15-3.6-1.38-11.37-1.92-14.08,1.45-1.95,2.43-1.07,5.84,1.44,7.47,2.56,1.66,6.28,1.16,8.99,.18,2.98-1.08,7.84-5.79,8.44-6.38,1.53,1.36,3,2.7,4.37,3.99,3.69,3.45,6.79,6.55,9.22,9.06l2.3-1.72c-2.55-2.53-5.84-5.69-9.79-9.22-1.54-1.39-3.22-2.84-4.96-4.32,.28-.46,1.88-3.11,3.05-5.77,3.21,.59,9.42-.58,10.22-.73,.52,1.98,1.01,3.91,1.44,5.74,1.14,4.77,2,8.97,2.64,12.35l2.5-1.88c-.68-3.15-1.55-6.9-2.65-11.09-.52-2.01-1.12-4.15-1.75-6.34,.75-.35,6.88-3.27,8.93-5.69,1.86-2.2,3.63-5.51,2.97-8.49-.65-2.91-3.54-4.93-6.5-3.95-4.1,1.36-6.3,8.83-6.27,12.69,0,.23,.3,2.69,.51,4.25-.26-.89-.51-1.76-.79-2.68-.55-1.82-1.15-3.61-1.79-5.55-.34-.92-.69-1.86-1.03-2.8-.32-.94-.79-1.89-1.18-2.85-.96-2.2-2.04-4.39-3.17-6.57,1.59-.48,7.21-2.28,9.39-4.18,2.18-1.89,4.42-4.9,4.22-7.94-.2-2.98-2.76-5.41-5.82-4.89-4.26,.72-7.57,7.77-8.12,11.59-.03,.24-.12,3.02-.14,4.55-.69-1.3-1.38-2.61-2.12-3.91-2.15-3.74-4.44-7.46-6.71-11.19-.7-1.14-1.37-2.28-2.06-3.43,.57-.17,7.29-2.16,9.74-4.28,2.18-1.89,4.42-4.9,4.22-7.94-.2-2.98-2.76-5.41-5.82-4.89-4.26,.72-7.57,7.77-8.12,11.59-.04,.29-.16,4.29-.14,5.31-1.51-2.52-2.98-5.04-4.34-7.59-1.88-3.51-3.52-7.06-4.86-10.61,.26-.08,7.29-2.12,9.8-4.3,2.18-1.89,4.42-4.9,4.22-7.94-.2-2.98-2.76-5.41-5.82-4.89-4.26,.72-7.57,7.77-8.12,11.59-.04,.3-.17,4.61-.14,5.39-.08-.21-.18-.42-.26-.63-1.38-3.81-2.24-7.68-2.87-11.34-.37-2.13-.6-4.18-.79-6.18,1.35-.25,7.5-1.44,9.97-3.15,2.37-1.64,4.93-4.38,5.07-7.43,.13-2.98-2.15-5.68-5.25-5.5-4.31,.25-8.37,6.9-9.34,10.63-.05,.2-.36,2.33-.56,3.88-.07-.91-.16-1.84-.2-2.71-.19-3.26-.16-6.26-.12-8.91,.04-1.51,.1-2.87,.18-4.15,1.2-.93,5.97-4.75,7.35-7.36,1.35-2.54,2.36-6.16,1.07-8.93-1.26-2.71-4.52-4.06-7.2-2.46-3.71,2.21-4.25,9.98-3.39,13.74,.08,.32,1.82,5.27,1.89,5.22,0,0,.06-.05,.07-.06-.1,1.23-.18,2.54-.25,3.98-.1,2.66-.2,5.66-.08,8.94,.11,3.28,.32,6.83,.89,10.56,.56,3.73,1.34,7.63,2.66,11.55,.01,.04,.04,.09,.05,.13-.74-1.02-2.91-3.82-3.1-4.02-2.69-2.76-9.52-6.51-13.39-4.59-2.79,1.39-3.42,4.86-1.82,7.38,1.63,2.58,5.21,3.69,8.08,3.93,3.24,.27,9.87-2.09,10.4-2.28,1.29,3.72,2.92,7.42,4.78,11.09,1.06,2.1,2.19,4.17,3.35,6.24-.67-.87-1.28-1.63-1.37-1.73-2.69-2.76-9.52-6.51-13.39-4.59-2.79,1.39-3.42,4.86-1.83,7.38,1.63,2.58,5.21,3.69,8.08,3.93,2.91,.25,8.61-1.65,10.11-2.18,.45,.79,.9,1.58,1.35,2.37,2.19,3.78,4.39,7.53,6.44,11.29,.72,1.32,1.38,2.65,2.05,3.98-.6-.77-1.1-1.41-1.19-1.5-2.69-2.76-9.52-6.51-13.39-4.59-2.79,1.39-3.42,4.86-1.82,7.38,1.63,2.58,5.21,3.69,8.08,3.93,2.78,.24,8.05-1.47,9.84-2.09,.64,1.38,1.29,2.76,1.85,4.13,.36,.94,.77,1.82,1.09,2.79,.33,.95,.65,1.89,.97,2.82,.55,1.82,1.13,3.69,1.63,5.47,.35,1.24,.67,2.42,.99,3.62-.7-1.32-2.13-3.89-2.28-4.09-1.49-2.08-4.72-4.87-7.93-6.12-.22-.31-.46-.6-.74-.86-2.15-2.07-5.68-2.16-7.6,.29-2.67,3.4-.38,10.84,1.77,14.04,.13,.19,1.74,2.08,2.77,3.26-.71-.6-1.4-1.19-2.14-1.8-1.46-1.21-2.95-2.38-4.55-3.64-.79-.58-1.6-1.17-2.41-1.76-.79-.61-1.7-1.15-2.56-1.73-2.02-1.31-4.12-2.54-6.27-3.73,1.06-1.28,4.75-5.88,5.53-8.67,.77-2.77,.99-6.52-.86-8.95-1.81-2.37-5.28-2.99-7.56-.87-3.15,2.95-2.02,10.66-.38,14.15,.1,.22,1.56,2.59,2.39,3.87-1.3-.71-2.59-1.42-3.92-2.09-3.86-1.94-7.82-3.78-11.76-5.63-1.21-.57-2.41-1.15-3.61-1.72,.38-.45,4.89-5.82,5.76-8.94,.77-2.77,.99-6.52-.86-8.95-1.81-2.37-5.29-2.99-7.56-.87-3.15,2.95-2.02,10.66-.38,14.15,.12,.26,2.23,3.67,2.81,4.51-2.64-1.27-5.27-2.56-7.8-3.93-3.5-1.89-6.83-3.94-9.91-6.17,.18-.21,4.91-5.8,5.8-8.99,.77-2.77,.99-6.52-.86-8.95-1.81-2.37-5.28-2.99-7.56-.87-3.15,2.95-2.02,10.66-.38,14.15,.13,.27,2.4,3.94,2.86,4.57-.18-.13-.39-.25-.57-.38-3.26-2.42-6.11-5.17-8.65-7.88-1.48-1.57-2.81-3.15-4.07-4.72,.99-.95,5.46-5.34,6.58-8.13,1.07-2.67,1.7-6.38,.13-8.99-1.54-2.56-4.92-3.56-7.42-1.69-3.46,2.59-3.18,10.37-1.93,14.02,.07,.2,.98,2.14,1.67,3.54-.56-.72-1.14-1.45-1.66-2.14-1.96-2.61-3.59-5.13-5.01-7.37-.8-1.28-1.5-2.45-2.14-3.56,.48-1.44,2.36-7.26,2.07-10.2-.28-2.87-1.43-6.44-4.03-8.04-2.54-1.56-6.01-.89-7.36,1.92-1.88,3.89,1.96,10.67,4.75,13.33,.24,.23,4.43,3.39,4.46,3.32,0,0,.02-.07,.03-.09,.6,1.07,1.25,2.22,1.99,3.46,1.38,2.27,2.96,4.83,4.87,7.5,1.9,2.67,4.04,5.52,6.56,8.31,2.53,2.81,5.33,5.63,8.59,8.16,.04,.03,.08,.05,.12,.08-1.18-.45-4.54-1.58-4.8-1.64-3.77-.82-11.53-.18-13.7,3.56-1.56,2.69-.17,5.94,2.55,7.17,2.78,1.25,6.38,.2,8.91-1.18Z"/>
        <path class="cls-18" d="M191.44,151.06c.08,0-1.92-4.86-2.09-5.15-1.87-3.37-7.46-8.79-11.7-7.96-3.05,.6-4.58,3.78-3.71,6.64,.89,2.92,4.06,4.93,6.76,5.93,3.17,1.17,10.73,.54,10.74,.54Z"/>
      </g>
      <g>
        <g>
          <path class="cls-2" d="M413.74,41.37h-70.89l-2.95,5.47c-3.14,5.82-9.33,9.47-16.08,9.47s-12.94-3.65-16.08-9.47l-2.95-5.47h-70.89c-7.56,0-13.7,5.97-13.7,13.34V419.76c0,7.37,6.13,13.34,13.7,13.34h179.84c7.56,0,13.7-5.97,13.7-13.34V54.7c0-7.37-6.13-13.34-13.7-13.34Z"/>
          <g>
            <rect class="cls-10" x="398.89" y="46.61" width="14.29" height="7.84"/>
            <rect class="cls-6" x="398.89" y="46.61" width="11.15" height="7.84"/>
            <rect class="cls-6" x="413.15" y="48.81" width="2.01" height="3.45"/>
          </g>
          <g>
            <rect class="cls-12" x="232.01" y="49.04" width="2.62" height="4.49"/>
            <rect class="cls-12" x="236.13" y="47.47" width="2.62" height="6.07"/>
            <rect class="cls-12" x="240.25" y="45.6" width="2.62" height="7.93"/>
          </g>
          <line class="cls-9" x1="226.55" y1="57.13" x2="421.06" y2="57.13"/>
        </g>
        <path class="cls-11" d="M437.53,166.83c.8,0,1.45-.65,1.45-1.45v-38.93c0-.8-.65-1.45-1.45-1.45h-3.78V50.67c0-10.32-8.37-18.69-18.69-18.69H232.58c-10.32,0-18.69,8.37-18.69,18.69V434.32c0,10.32,8.37,18.69,18.69,18.69h182.48c10.32,0,18.69-8.37,18.69-18.69V200.29h3.78c.8,0,1.45-.65,1.45-1.45v-17.32c0-.8-.65-1.45-1.45-1.45h-3.78v-13.24h3.78Zm-10.09,252.93c0,7.37-6.13,13.34-13.7,13.34H233.9c-7.56,0-13.7-5.97-13.7-13.34V54.7c0-7.37,6.13-13.34,13.7-13.34h70.89l2.95,5.47c3.14,5.82,9.33,9.47,16.08,9.47s12.94-3.65,16.08-9.47l2.95-5.47h70.89c7.56,0,13.7,5.97,13.7,13.34V419.76Z"/>
        <path class="cls-4" d="M328.7,43.46c0-2.69-2.18-4.88-4.88-4.88s-4.88,2.18-4.88,4.88,2.18,4.88,4.88,4.88,4.88-2.18,4.88-4.88Z"/>
      </g>
      <g>
        <g>
          <path class="cls-19" d="M349.46,68.19h-110.06c-4.63,0-8.39,3.76-8.39,8.39v45.07l9.92-10.51h108.52c4.63,0,8.39-3.76,8.39-8.39v-26.17c0-4.63-3.76-8.39-8.39-8.39Z"/>
          <g>
            <path class="cls-2" d="M265.28,86.64c0-6.51-5.28-11.79-11.79-11.79s-11.79,5.28-11.79,11.79,5.28,11.79,11.79,11.79,11.79-5.28,11.79-11.79Z"/>
            <g>
              <path class="cls-4" d="M259.43,86.91s1.24-1.65,1.51,0c.28,1.65-2.11,3.71-2.11,3.71l.6-3.71Z"/>
              <path class="cls-4" d="M247.58,86.91s-1.24-1.65-1.51,0c-.28,1.65,2.11,3.71,2.11,3.71l-.6-3.71Z"/>
              <path class="cls-4" d="M253.92,78.77s-4.67-.36-5.74,2.75-.36,8.14,0,9.1c.36,.96,3.35,5.63,4.19,5.98s2.87,.24,3.23-.24c.36-.48,3.35-4.91,3.59-6.46,.16-1.06,0-4.66-.13-6.86-.09-1.64-1.11-3.09-2.63-3.72-.67-.28-1.5-.49-2.5-.55Z"/>
              <path class="cls-11" d="M259.05,83.04c-.09-1.64-1.11-3.09-2.63-3.72-.67-.28-1.5-.49-2.5-.55,0,0-4.67-.36-5.74,2.75-.55,1.59-.63,3.67-.53,5.47,.24,.27,1.01,1.11,.89,.06-.14-1.24-.28-4.95,.69-5.78,.96-.83,1.1-1.51,2.48-.41,1.38,1.1,1.24,2.06,2.61,1.38,1.38-.69,1.65-2.2,2.89-1.65,1.24,.55,.83,3.16,.83,4.4s0,3.58,.83,2.48c.12-.16,.25-.43,.37-.75-.04-1.26-.11-2.62-.17-3.67Z"/>
              <path class="cls-11" d="M251.93,95.85s1.48-2.95,2.42-1.88c.94,1.07,1.25,2.39,1.25,2.39,0,0-2.05,1.37-3.66-.51Z"/>
              <path class="cls-11" d="M252.6,78.54s-.4-.94-1.07-1.34l-.67-.4s1.61-.67,2.15-.13c.54,.54,.94,1.07,.94,1.07,0,0,.27-1.88,.94-1.21,.67,.67,1.21,1.07,1.21,1.07,0,0-1.88,.54-1.88,1.88"/>
            </g>
          </g>
          <g>
            <line class="cls-17" x1="272.23" y1="78.21" x2="296.67" y2="78.21"/>
            <line class="cls-16" x1="272.23" y1="86.73" x2="347.04" y2="86.73"/>
            <line class="cls-16" x1="272.23" y1="93.76" x2="347.04" y2="93.76"/>
            <line class="cls-16" x1="272.23" y1="101.54" x2="347.04" y2="101.54"/>
          </g>
        </g>
        <g>
          <g>
            <path class="cls-18" d="M407.84,129.08h-110.06c-4.63,0-8.39,3.76-8.39,8.39v26.17c0,4.63,3.76,8.39,8.39,8.39h108.52l9.92,10.51v-45.07c0-4.63-3.76-8.39-8.39-8.39Z"/>
            <g>
              <line class="cls-13" x1="330.61" y1="139.1" x2="355.05" y2="139.1"/>
              <line class="cls-9" x1="330.61" y1="147.61" x2="405.42" y2="147.61"/>
              <line class="cls-9" x1="330.61" y1="154.65" x2="405.42" y2="154.65"/>
              <line class="cls-9" x1="330.61" y1="162.43" x2="405.42" y2="162.43"/>
            </g>
          </g>
          <g>
            <path class="cls-2" d="M324.15,150c0-6.51-5.28-11.79-11.79-11.79s-11.79,5.28-11.79,11.79,5.28,11.79,11.79,11.79,11.79-5.28,11.79-11.79Z"/>
            <g>
              <path class="cls-11" d="M310.87,141.04s-3.95-.45-5.57,3.82-2.3,9.09-2.3,11.52,4.83,4.36,7.47,4.57c2.64,.2,8.58,.1,10.61-3.15,2.03-3.25-1.27-9.85-2.08-13.91-.81-4.06-5.28-3.05-8.13-2.84Z"/>
              <path class="cls-4" d="M318.3,149.19s1.24-1.65,1.51,0c.27,1.65-2.11,3.71-2.11,3.71l.6-3.71Z"/>
              <path class="cls-4" d="M306.44,149.19s-1.24-1.65-1.51,0c-.28,1.65,2.11,3.71,2.11,3.71l-.6-3.71Z"/>
              <path class="cls-4" d="M312.79,141.05s-4.67-.36-5.74,2.75c-1.08,3.11-.36,8.14,0,9.1,.36,.96,3.35,5.62,4.19,5.98,.84,.36,2.87,.24,3.23-.24,.36-.48,3.35-4.91,3.59-6.46,.16-1.06,0-4.66-.13-6.86-.09-1.64-1.11-3.09-2.63-3.72-.67-.28-1.5-.49-2.5-.55Z"/>
            </g>
            <path class="cls-11" d="M309.24,142.26s7.54,6.93,9.06,6.93,1.71-5.1,.08-7.54c-1.63-2.44-9.34-3.86-9.14,.61Z"/>
          </g>
        </g>
        <g>
          <path class="cls-19" d="M349.46,191.78h-110.06c-4.63,0-8.39,3.76-8.39,8.39v45.07l9.92-10.51h108.52c4.63,0,8.39-3.76,8.39-8.39v-26.17c0-4.63-3.76-8.39-8.39-8.39Z"/>
          <g>
            <circle class="cls-2" cx="253.48" cy="210.23" r="11.79" transform="translate(-38.21 363.09) rotate(-67.33)"/>
            <g>
              <path class="cls-4" d="M259.43,210.49s1.24-1.65,1.51,0c.28,1.65-2.11,3.71-2.11,3.71l.6-3.71Z"/>
              <path class="cls-4" d="M247.58,210.49s-1.24-1.65-1.51,0c-.28,1.65,2.11,3.71,2.11,3.71l-.6-3.71Z"/>
              <path class="cls-4" d="M253.92,202.35s-4.67-.36-5.74,2.75c-1.08,3.11-.36,8.14,0,9.1,.36,.96,3.35,5.63,4.19,5.98,.84,.36,2.87,.24,3.23-.24,.36-.48,3.35-4.91,3.59-6.46,.16-1.06,0-4.66-.13-6.86-.09-1.64-1.11-3.09-2.63-3.72-.67-.28-1.5-.49-2.5-.55Z"/>
              <path class="cls-11" d="M259.05,206.63c-.09-1.64-1.11-3.09-2.63-3.72-.67-.28-1.5-.49-2.5-.55,0,0-4.67-.36-5.74,2.75-.55,1.59-.63,3.67-.53,5.47,.24,.27,1.01,1.11,.89,.06-.14-1.24-.28-4.95,.69-5.78,.96-.83,1.1-1.51,2.48-.41,1.38,1.1,1.24,2.06,2.61,1.38,1.38-.69,1.65-2.2,2.89-1.65,1.24,.55,.83,3.16,.83,4.4s0,3.58,.83,2.48c.12-.16,.25-.43,.37-.75-.04-1.26-.11-2.62-.17-3.67Z"/>
              <path class="cls-11" d="M251.93,219.44s1.48-2.95,2.42-1.88c.94,1.07,1.25,2.39,1.25,2.39,0,0-2.05,1.37-3.66-.51Z"/>
              <path class="cls-11" d="M252.6,202.12s-.4-.94-1.07-1.34l-.67-.4s1.61-.67,2.15-.13c.54,.54,.94,1.07,.94,1.07,0,0,.27-1.88,.94-1.21,.67,.67,1.21,1.07,1.21,1.07,0,0-1.88,.54-1.88,1.88"/>
            </g>
          </g>
          <g>
            <line class="cls-17" x1="272.23" y1="201.79" x2="296.67" y2="201.79"/>
            <line class="cls-16" x1="272.23" y1="210.31" x2="347.04" y2="210.31"/>
            <line class="cls-16" x1="272.23" y1="217.35" x2="347.04" y2="217.35"/>
            <line class="cls-16" x1="272.23" y1="225.13" x2="347.04" y2="225.13"/>
          </g>
        </g>
        <g>
          <path class="cls-19" d="M349.46,253.31h-110.06c-4.63,0-8.39,3.76-8.39,8.39v45.07l9.92-10.51h108.52c4.63,0,8.39-3.76,8.39-8.39v-26.17c0-4.63-3.76-8.39-8.39-8.39Z"/>
          <g>
            <circle class="cls-2" cx="253.48" cy="271.76" r="11.79" transform="translate(-94.98 400.91) rotate(-67.33)"/>
            <g>
              <path class="cls-4" d="M259.43,272.02s1.24-1.65,1.51,0c.28,1.65-2.11,3.71-2.11,3.71l.6-3.71Z"/>
              <path class="cls-4" d="M247.58,272.02s-1.24-1.65-1.51,0c-.28,1.65,2.11,3.71,2.11,3.71l-.6-3.71Z"/>
              <path class="cls-4" d="M253.92,263.89s-4.67-.36-5.74,2.75c-1.08,3.11-.36,8.14,0,9.1,.36,.96,3.35,5.63,4.19,5.98s2.87,.24,3.23-.24c.36-.48,3.35-4.91,3.59-6.46,.16-1.06,0-4.66-.13-6.86-.09-1.64-1.11-3.09-2.63-3.72-.67-.28-1.5-.49-2.5-.55Z"/>
              <path class="cls-11" d="M259.05,268.16c-.09-1.64-1.11-3.09-2.63-3.72-.67-.28-1.5-.49-2.5-.55,0,0-4.67-.36-5.74,2.75-.55,1.59-.63,3.67-.53,5.47,.24,.27,1.01,1.11,.89,.06-.14-1.24-.28-4.95,.69-5.78,.96-.83,1.1-1.51,2.48-.41,1.38,1.1,1.24,2.06,2.61,1.38,1.38-.69,1.65-2.2,2.89-1.65,1.24,.55,.83,3.16,.83,4.4s0,3.58,.83,2.48c.12-.16,.25-.43,.37-.75-.04-1.26-.11-2.62-.17-3.67Z"/>
              <path class="cls-11" d="M251.93,280.97s1.48-2.95,2.42-1.88c.94,1.07,1.25,2.39,1.25,2.39,0,0-2.05,1.37-3.66-.51Z"/>
              <path class="cls-11" d="M252.6,263.66s-.4-.94-1.07-1.34l-.67-.4s1.61-.67,2.15-.13,.94,1.07,.94,1.07c0,0,.27-1.88,.94-1.21,.67,.67,1.21,1.07,1.21,1.07,0,0-1.88,.54-1.88,1.88"/>
            </g>
          </g>
          <g>
            <line class="cls-17" x1="272.23" y1="263.33" x2="296.67" y2="263.33"/>
            <line class="cls-16" x1="272.23" y1="271.84" x2="347.04" y2="271.84"/>
            <line class="cls-16" x1="272.23" y1="278.88" x2="347.04" y2="278.88"/>
            <line class="cls-16" x1="272.23" y1="286.66" x2="347.04" y2="286.66"/>
          </g>
        </g>
        <g>
          <path class="cls-19" d="M349.46,369.27h-110.06c-4.63,0-8.39,3.76-8.39,8.39v45.07l9.92-10.51h108.52c4.63,0,8.39-3.76,8.39-8.39v-26.17c0-4.63-3.76-8.39-8.39-8.39Z"/>
          <g>
            <circle class="cls-2" cx="253.48" cy="387.72" r="11.79" transform="translate(-59.04 45.8) rotate(-9.25)"/>
            <g>
              <path class="cls-4" d="M259.43,387.98s1.24-1.65,1.51,0c.28,1.65-2.11,3.71-2.11,3.71l.6-3.71Z"/>
              <path class="cls-4" d="M247.58,387.98s-1.24-1.65-1.51,0c-.28,1.65,2.11,3.71,2.11,3.71l-.6-3.71Z"/>
              <path class="cls-4" d="M253.92,379.84s-4.67-.36-5.74,2.75c-1.08,3.11-.36,8.14,0,9.1,.36,.96,3.35,5.63,4.19,5.98,.84,.36,2.87,.24,3.23-.24,.36-.48,3.35-4.91,3.59-6.46,.16-1.06,0-4.66-.13-6.86-.09-1.64-1.11-3.09-2.63-3.72-.67-.28-1.5-.49-2.5-.55Z"/>
              <path class="cls-11" d="M259.05,384.11c-.09-1.64-1.11-3.09-2.63-3.72-.67-.28-1.5-.49-2.5-.55,0,0-4.67-.36-5.74,2.75-.55,1.59-.63,3.67-.53,5.47,.24,.27,1.01,1.11,.89,.06-.14-1.24-.28-4.95,.69-5.78,.96-.83,1.1-1.51,2.48-.41,1.38,1.1,1.24,2.06,2.61,1.38,1.38-.69,1.65-2.2,2.89-1.65,1.24,.55,.83,3.16,.83,4.4s0,3.58,.83,2.48c.12-.16,.25-.43,.37-.75-.04-1.26-.11-2.62-.17-3.67Z"/>
              <path class="cls-11" d="M251.93,396.92s1.48-2.95,2.42-1.88c.94,1.07,1.25,2.39,1.25,2.39,0,0-2.05,1.37-3.66-.51Z"/>
              <path class="cls-11" d="M252.6,379.61s-.4-.94-1.07-1.34l-.67-.4s1.61-.67,2.15-.13c.54,.54,.94,1.07,.94,1.07,0,0,.27-1.88,.94-1.21,.67,.67,1.21,1.07,1.21,1.07,0,0-1.88,.54-1.88,1.88"/>
            </g>
          </g>
          <g>
            <line class="cls-17" x1="272.23" y1="379.28" x2="296.67" y2="379.28"/>
            <line class="cls-16" x1="272.23" y1="387.8" x2="347.04" y2="387.8"/>
            <line class="cls-16" x1="272.23" y1="394.84" x2="347.04" y2="394.84"/>
            <line class="cls-16" x1="272.23" y1="402.61" x2="347.04" y2="402.61"/>
          </g>
        </g>
        <g>
          <g>
            <path class="cls-18" d="M407.84,314.71h-110.06c-4.63,0-8.39,3.76-8.39,8.39v26.17c0,4.63,3.76,8.39,8.39,8.39h108.52l9.92,10.51v-45.07c0-4.63-3.76-8.39-8.39-8.39Z"/>
            <g>
              <line class="cls-13" x1="330.61" y1="324.72" x2="355.05" y2="324.72"/>
              <line class="cls-9" x1="330.61" y1="333.24" x2="405.42" y2="333.24"/>
              <line class="cls-9" x1="330.61" y1="340.28" x2="405.42" y2="340.28"/>
              <line class="cls-9" x1="330.61" y1="348.05" x2="405.42" y2="348.05"/>
            </g>
          </g>
          <g>
            <path class="cls-2" d="M324.15,335.62c0-6.51-5.28-11.79-11.79-11.79s-11.79,5.28-11.79,11.79,5.28,11.79,11.79,11.79,11.79-5.28,11.79-11.79Z"/>
            <g>
              <path class="cls-11" d="M310.87,326.66s-3.95-.45-5.57,3.82-2.3,9.09-2.3,11.52,4.83,4.36,7.47,4.57c2.64,.2,8.58,.1,10.61-3.15,2.03-3.25-1.27-9.85-2.08-13.91-.81-4.06-5.28-3.05-8.13-2.84Z"/>
              <path class="cls-4" d="M318.3,334.81s1.24-1.65,1.51,0c.27,1.65-2.11,3.71-2.11,3.71l.6-3.71Z"/>
              <path class="cls-4" d="M306.44,334.81s-1.24-1.65-1.51,0c-.28,1.65,2.11,3.71,2.11,3.71l-.6-3.71Z"/>
              <path class="cls-4" d="M312.79,326.68s-4.67-.36-5.74,2.75c-1.08,3.11-.36,8.14,0,9.1,.36,.96,3.35,5.62,4.19,5.98,.84,.36,2.87,.24,3.23-.24,.36-.48,3.35-4.91,3.59-6.46,.16-1.06,0-4.66-.13-6.86-.09-1.64-1.11-3.09-2.63-3.72-.67-.28-1.5-.49-2.5-.55Z"/>
            </g>
            <path class="cls-11" d="M309.24,327.88s7.54,6.93,9.06,6.93,1.71-5.1,.08-7.54c-1.63-2.44-9.34-3.86-9.14,.61Z"/>
          </g>
        </g>
      </g>
      <g>
        <g>
          <g>
            <path class="cls-1" d="M435.98,428.8l-1.23,22.29s.74,1.6,2.09,1.85c1.35,.25,30.79,0,30.79,0,0,0,.37-1.85-.25-3.57-.62-1.72-1.72-2.83-3.2-3.2-1.48-.37-11.7-5.05-12.56-5.42-.86-.37-1.35-6.28-1.35-6.28l-14.28-5.66Z"/>
            <path class="cls-1" d="M467.62,452.94s.21-1.1,.03-2.39c-6.14-.17-26.18-.71-32.83-.88l-.08,1.42s.74,1.6,2.09,1.85c1.35,.25,30.79,0,30.79,0Z"/>
          </g>
          <path class="cls-5" d="M442.11,315.83s2.53,54.71,2.24,56.4c-.28,1.68-9.54,57.52-9.54,57.52,0,0,8.14,4.49,12.06,5.33,3.93,.84,9.26,1.12,9.26,1.12,0,0,12.91-52.47,13.47-55.55,.56-3.09-6.45-69.58-6.45-69.58l-21.04,4.77Z"/>
          <g>
            <path class="cls-1" d="M442.5,422.89s-11.45,15.76-10.1,17.36c1.35,1.6,11.33,11.08,13.79,12.19,2.46,1.11,25,0,25,0,0,0,.37-.99,.37-1.97s-.12-4.8-1.48-5.91c-1.35-1.11-11.58-5.91-11.94-6.65-.37-.74-.86-6.77-.86-6.77l-14.78-8.25Z"/>
            <path class="cls-1" d="M471.19,452.45s.37-.99,.37-1.97c0-.12,0-.28,0-.46l-15.63,.59s-4.8,.74-7.39-1.35c-2.16-1.75-11.66-10.4-14.7-13.18-1.15,2.09-1.82,3.73-1.44,4.19,1.35,1.6,11.33,11.08,13.79,12.19,2.46,1.11,25,0,25,0Z"/>
          </g>
          <path class="cls-5" d="M433.97,290.29s1.68,16.27,3.09,18.8c1.4,2.53,3.65,6.45,3.65,6.45l21.32,59.76-21.88,48.26s15.99,10.38,19.36,11.5,4.49,1.12,4.49,1.12c0,0,25.81-60.32,25.81-64.53s-17.96-64.53-17.96-64.53l1.12-20.76-39,3.93Z"/>
          <polyline class="cls-15" points="455.28 295.34 467.08 300.06 457.3 292.31 464.05 295.34"/>
          <polyline class="cls-14" points="448.5 336.34 462.03 375.31 442.39 420.48"/>
          <line class="cls-14" x1="445.76" y1="328.45" x2="447.15" y2="332.47"/>
        </g>
        <g>
          <g>
            <path class="cls-1" d="M488.3,260.11s6.64-6.24,7.96-7.03c1.33-.8,6.77-2.39,7.17-4.25,.4-1.86-.13-11.02-.66-10.62-.53,.4-7.56,10.35-7.56,10.35l-9.16,7.17,2.26,4.38Z"/>
            <line class="cls-1" x1="497.73" y1="245.64" x2="496.93" y2="251.75"/>
            <line class="cls-1" x1="499.85" y1="242.46" x2="500.12" y2="249.89"/>
            <path class="cls-1" d="M501.97,239.93s-.13,7.83,0,8.63"/>
            <path class="cls-1" d="M503.83,246.7s2.26-2.79,1.73-4.65c-.53-1.86-2.12-2.39-2.12-2.39l.4,7.03Z"/>
          </g>
          <path class="cls-7" d="M487.51,252.94c.4,.27,3.58,5.18,3.58,5.18l-3.98,5.31s1.99,3.72,.8,4.65c-1.19,.93-11.15,6.11-11.15,6.11l-3.32-13.4s7.43-4.65,7.83-4.51c.4,.13,1.06,.8,1.06,.8l5.18-4.11Z"/>
          <polygon class="cls-5" points="491.74 251.15 493.12 252.11 507.74 231.18 506.36 230.22 491.74 251.15"/>
        </g>
        <path class="cls-7" d="M450.14,212.63c-.81,.41-12.41,14.45-16.68,19.94s-3.87,14.45-3.66,19.33c.2,4.88-2.03,41.1-2.03,41.1,0,0,17.7-1.42,28.28-2.44,10.58-1.02,25.64-2.03,25.64-2.03,0,0-4.27-18.72-6.31-27.06-2.03-8.34-5.29-20.35-7.53-26.04-2.24-5.7-5.49-10.99-5.49-10.99l-12.21-11.8Z"/>
        <g>
          <path class="cls-1" d="M471.7,213.24l-6.51,7.32-9.97-12.61,5.9-6.92s3.46-3.66,5.49-3.26c2.03,.41,5.09,15.46,5.09,15.46Z"/>
          <polygon class="cls-5" points="464.79 205.71 468.77 216.78 471.7 213.24 464.79 205.71"/>
          <path class="cls-5" d="M463.97,200.83s-2.44,3.87-4.48,3.05-7.53-6.71-9.97-14.04c-2.44-7.32,6.51-8.55,7.93-11.39,1.42-2.85,2.64-3.26,4.68-13.22,2.03-9.97,24.82-6.1,28.28-.81,3.46,5.29,2.85,15.87,12.41,12.41,9.56-3.46,19.94-7.12,22.18,1.42,2.24,8.55-5.09,18.92-2.44,22.58s11.19,1.02,10.58,4.48-5.09,5.7-3.66,6.51c1.42,.81,9.36-3.26,7.12,.41-2.24,3.66-6.92,7.53-7.53,5.9-.61-1.63,0-3.66-2.24-2.44-2.24,1.22-8.95,6.1-11.8,3.46-2.85-2.64,.81-12.21-3.87-13.22-4.68-1.02-16.07,2.24-19.94,2.44-3.87,.2-4.27-1.02-11.39-4.48-7.12-3.46-15.87-3.05-15.87-3.05Z"/>
          <g>
            <g>
              <path class="cls-1" d="M465.6,195.13s12,.61,19.73-1.42c7.73-2.03,10.38-3.26,10.38-3.26,0,0,.2,7.93-1.83,10.17-2.03,2.24-4.68,4.27-4.68,5.9s2.03,4.27,.81,5.7c-1.22,1.42-4.07,1.42-4.88,1.42s-7.32,6.1-9.16,6.1-10.99-12.21-11.19-14.04c-.2-1.83,0-6.51,0-6.51"/>
              <path class="cls-8" d="M486.96,202.25l-2.24,2.65s-2.24-.2-3.05-2.65"/>
              <path class="cls-8" d="M479.43,208.36s-.2,3.26,2.44,3.66"/>
              <path class="cls-8" d="M484.52,198.79s3.66-1.22,5.29,1.83"/>
            </g>
            <path class="cls-1" d="M468.65,198.18s-3.05-8.95-5.9-5.7c-2.85,3.26-1.22,8.95,1.02,10.17,2.24,1.22,4.27,0,4.27,0"/>
          </g>
        </g>
        <path class="cls-7" d="M456.04,204.69s13.43,13.22,13.02,15.06c-.41,1.83-2.64,3.05-2.64,3.05,0,0,.61,3.66-.41,4.48-1.02,.81-2.24,1.02-2.24,1.02,0,0-12.82-13.22-14.45-15.26-1.63-2.03-.41-3.05,.61-3.46,1.02-.41,2.24-.61,2.24-.61,0,0,1.42-4.88,3.87-4.27Z"/>
        <g>
          <path class="cls-7" d="M436.57,234.25s-1.26,7.15-1.26,14.31,2.95,42.3,4.42,44.19c1.47,1.89,7.37,3.58,9.89,1.89,2.53-1.68,24.41-15.78,24.62-18.1s-3.37-10.73-4.84-11.36-2.74-.42-4.84,1.47c-2.1,1.89-7.58,5.05-7.58,5.05,0,0-1.47-26.94-3.16-33.46s-2.53-7.79-3.58-8.21"/>
          <g>
            <path class="cls-1" d="M475.37,261.46s6.03-14.37,6.45-15.42c.42-1.05,1.89-2.74,3.16-2.95,1.26-.21,10.94-2.31,11.78-2.53s1.47,.84-.84,2.31-8,2.1-8,2.1l-.84,6.31s5.68-4.42,5.68-2.1-4.21,3.79-4.84,4-2.31,2.95-2.95,3.37-2.95,1.05-2.95,1.05c0,0-.42,2.53-1.26,3.37-.84,.84-4.63,3.58-4.63,3.58l-.77-3.09Z"/>
            <path class="cls-1" d="M481.81,246.03s2.44-3.01,2.8-2.98c.36,.03,4.64,3.65,4.93,3.95s-1.58,3.35-1.87,3.85c-.3,.49-.39,.89-1.18,.59-.79-.3-1.48-.89-1.48-.89"/>
            <path class="cls-1" d="M481.16,248.48s2.66-2.96,3.06-2.96,3.75,2.66,3.75,3.16-.59,3.45-1.09,3.55c-.49,.1-2.07-.2-2.07-.2"/>
            <path class="cls-1" d="M481.06,251.34s1.58-1.68,2.37-2.07,2.56,1.29,3.65,2.02,2.37,1.13,1.78,1.82c-.59,.69-2.86-.3-3.35-.3s-1.58-.49-1.58-.49l-1.28,3.85"/>
          </g>
          <path class="cls-7" d="M468.35,265.81l7.37-5.89,3.37,6.31-6.31,6.52s-4.42-.84-4.42-6.94Z"/>
        </g>
      </g>
      <g>
        <g>
          <path class="cls-1" d="M33.98,439.15s-5.02-1.5-8.33-4.37c-3.31-2.87-13.82-10.65-16.87-12.68-3.05-2.02-2.67,7.24-1.64,12.03,1.03,4.79,3.19,9.04,5.11,11.33,1.92,2.28,14.46,7.02,15.85,7.33,1.4,.31,7.01,.42,8.14-.12,1.13-.54-1.22-9.57-2.26-13.51Z"/>
          <path class="cls-1" d="M12.89,441.54c-2.93-3.76-4.95-15.29-5.09-19.71-1.96,.46-1.56,8.1-.66,12.3,1.03,4.79,3.19,9.04,5.11,11.33,1.92,2.28,14.46,7.02,15.85,7.33,.91,.2,3.63,.32,5.71,.22-6.77-2.4-17.98-7.69-20.93-11.47Z"/>
        </g>
        <path class="cls-7" d="M170.7,370.64s-3.46,6.4-5.21,10.12c-1.74,3.72-3.26,6.41-3.26,6.41,0,0-1.67-3.26-2.94-2.66-1.26,.6-2.76,.91-2.76,.91,0,0-1.58-5.66-4.03-8.63-2.45-2.97-4.47-1.54-6.71-3.52-3.17-2.8-4.45-3.64-6.57-5.34-2.61-2.09-6.6,6.76-6.67,10.1s17.05,24.33,21.32,30.05c4.27,5.72,8.58,9.35,11.36,5.86,2.78-3.49,4.1-6.81,6.2-18.04,2.1-11.23,7.23-28.24-.76-25.27Z"/>
        <g>
          <path class="cls-1" d="M139.24,367.93l-7.77-5.82c-.83-1.65-2.53-5.08-3.45-7.47-1.26-3.25-1.8-5.32-4.69-7.58-2.89-2.26-9.73-5.03-10.6-5.93-.86-.9-1.23,2.62,.36,4.26,1.58,1.65,2.6,1.96,2.6,1.96,0,0-11.27-1.39-11.29-.51-.02,.88,9.58,12.96,13.05,15.81,1.45,1.19,4.69,2.32,6.53,3.65,1.08,.78,1.88,1.56,2.49,2.21-.43,.24-.57,.23-.61,.2,.39,.56,6.37,9.08,8.19,8.71,1.89-.38,7.95-.89,5.19-9.5Z"/>
          <g>
            <rect class="cls-5" x="111.18" y="331.44" width="1.47" height="27.73" transform="translate(-174.97 122.91) rotate(-34.26)"/>
            <g>
              <path class="cls-1" d="M107.89,340.75s-6,6.49-5.28,7.09c.72,.6,3.03,2.85,3.62,2.57,.59-.28,3.78-5.5,3.93-6.09,.16-.58-2.28-3.57-2.28-3.57Z"/>
              <path class="cls-1" d="M110.89,345.06s-4.53,6.66-4.1,7.26c.43,.6,6.17,7.31,6.89,7.77,.72,.45,4.76-3.43,4.76-3.43l-7.55-11.59Z"/>
              <path class="cls-8" d="M113.31,348.93s-4.24,6.67-3.8,6.68"/>
              <line class="cls-8" x1="116.15" y1="353.53" x2="112.24" y2="358.15"/>
            </g>
            <path class="cls-1" d="M115.68,347.36l3.64,1.69s-.91,8.93,4.02,11.97"/>
          </g>
        </g>
        <path class="cls-1" d="M125.85,368.72s-.02-.03-.02-.03c0,0,0,.02,.02,.03Z"/>
        <path class="cls-5" d="M167.43,417.35s-35.37-42.23-39.21-46.79c-3.84-4.57-12.5-6.42-17.59-4.83-5.08,1.58-11.25,15.78-12.49,21.64-1.24,5.87-11.27,31.21-13.02,34.54-1.75,3.33-4.35,6.93-4.37,8.33-.03,1.4-.05,2.52-.05,2.52l-1.76,3.89s8.12,1,11.5,.51c3.38-.5,8.22-4.33,9.1-6.28,.88-1.95,3.36-6.76,6.35-8.86,4.27-3,11.68-23.06,11.68-23.06l13.99,30.58s27.71,3.91,33.89,3.19c6.19-.72,1.99-15.4,1.99-15.4Z"/>
        <path class="cls-5" d="M166.09,413.96s-4.32,5.53-4.34,6.65l-.02,1.12-23.62,2.34s-24.41-.48-28.07,.29c-3.66,.77-56.7,14.89-60.08,15.38-3.38,.5-5.01-2.35-6.41-2.38s-2.78-1.18-4.75-1.22c-1.96-.04-3.7,2.73-4.83,2.99-1.13,.26-1.41,.53-2.26,.52-.84-.02-.24-1.97-.84-.02s-2.11,7.54-.76,10.09c1.35,2.55,3.57,4,3.57,4,0,0,45.46,.05,53.04,.2,7.57,.15,30.91-1.91,33.72-2.14,2.81-.23,43.45,2.25,49.91,2.38s27.78-.02,31.47-2.19c3.69-2.17,8.42-14.43,7.67-19.21-.75-4.79-39.77-18.46-39.77-18.46l-3.64-.35Z"/>
        <path class="cls-7" d="M164.48,410s-.58,1.11-.34,3.08c.24,1.97,44.17,23.03,45.59,22.22,1.42-.81,2.42-8.93,2.42-8.93l-47.62-18.89-.05,2.52Z"/>
        <path class="cls-7" d="M183.2,342.73s-8.07,11.07-11.05,19.71c-2.98,8.64-7.77,38.29-9.52,41.91s-1.8,5.86,.72,6.47c2.51,.61,26.44,11.18,34.52,14.43,8.07,3.24,15.31,6.19,16.53,1.17,1.22-5.03,1.28-8.11,1.15-15.69-.13-7.58-.28-43.22-.91-53.62-.64-10.4-6.2-27.34-13.5-26.92s-17.93,12.56-17.93,12.56Z"/>
        <g>
          <path class="cls-1" d="M198.49,303.78c-.86-6.11-3.79-11.09-8.77-14.2,2.91-3.15,6.41-1.01,6.41-1.01,0,0,.67-2.38-1.27-3.22-1.86-.8-3.47,.46-3.47,.46,0,0,.33-3.19,2.49-4.74,2.16-1.55,6.37,.66,6.37,.66,0,0-.9-8.26-6.25-6.77-5.35,1.49-4.64,6.03-4.64,6.03,0,0-.99-3.74-4.18-4.07-3.19-.33-5.63,2.28-5.63,2.28,0,0,2.71-2.34,5.55,1.7,2.19,3.11,1.56,5.84,1.15,6.94-.83-.32-1.69-.61-2.6-.85-7.52-1.98-16.1,.16-19.76,3.82-2.38,.65-5.63,1.84-8.06,3.88-4.02,3.38-.26,8.07,.29,8.71,.3,1.67,.3,1.68,.3,1.68,0,0,.91,7.73,1.66,10.14,.75,2.41,2.07,3.23,2.04,4.56-.03,1.33-2.25,6.07-.68,7.7,1.56,1.63,2.9,1.12,2.9,1.12,0,0,6.13,12.89,8.81,11.88,2.68-1.01,7.29-5.71,7.29-5.71l6.04,3.84,11.15-12.29-2.02-5.36s6.03-8.93,4.86-17.2Z"/>
          <path class="cls-5" d="M161.1,303.19c3.24-1.54,11.53-3.44,10.11-.95-1.42,2.49-1.74,6.84,.09,7.34,1.82,.49,5.67,3.09,7.03,4.04s2.98,.29,3-1.09c.03-1.38,1.46-4.1,4.41-2.67,2.95,1.43,3.13,4.19,2.38,7.38-.75,3.2-3.07,4.53-3.07,4.53,0,0,3.52,2.83,8.94,.12l-.35-.92s6.03-8.93,4.86-17.2c-.86-6.11-3.79-11.09-8.77-14.2,2.91-3.15,6.41-1.01,6.41-1.01,0,0,.67-2.38-1.27-3.22-1.86-.8-3.47,.46-3.47,.46,0,0,.33-3.19,2.49-4.74,2.16-1.55,6.37,.66,6.37,.66,0,0-.9-8.26-6.25-6.77-5.35,1.49-4.64,6.03-4.64,6.03,0,0-.99-3.74-4.18-4.07-3.19-.33-5.63,2.28-5.63,2.28,0,0,2.71-2.34,5.55,1.7,2.19,3.11,1.56,5.84,1.15,6.94-.83-.32-1.69-.61-2.6-.85-7.52-1.98-16.1,.16-19.76,3.82-2.38,.65-5.63,1.84-8.06,3.88-4.02,3.38-.26,8.07,.29,8.71,0,0,1.73,1.33,4.97-.21Z"/>
          <path class="cls-8" d="M163.62,315.17l-.06,2.98s3.19,.98,5.76-1.26"/>
          <path class="cls-8" d="M160.23,312.35s2.59-3.39,6.67-1.25"/>
          <path class="cls-8" d="M166.1,328.97s3.9-.15,6.28-4.69"/>
          <path class="cls-5" d="M173.11,334.15c-2.31,1.1-5.24-1.94-6.61-2.19-1.11-.21-.91,2.01-.8,2.87,1.88,3.13,4.12,6.17,5.47,5.66,2.68-1.01,7.29-5.71,7.29-5.71l.21,.13c.48-.89,1.11-2.26,1.13-3.38,.04-1.83-4.39,1.52-6.7,2.62Z"/>
        </g>
        <path class="cls-1" d="M207.43,323.56s-8.37-2.69-13.24,2.55c-4.87,5.24-18.08,20.69-15.28,20.75,2.81,.05,7.73-7.71,13.39-10.12,5.66-2.41,9.03-2.35,10.91,1.62,1.89,3.97,8.41,29.35,11.02,24.91,2.61-4.44,7.28-13.33,4.92-21.79-2.36-8.47-8.94-16.17-11.72-17.91Z"/>
        <g>
          <path class="cls-7" d="M186.07,353.73s-6.97,12.21-7.67,18.93c-.69,6.72-2.93,34.74-2.93,34.74,0,0-2.77-1.74-4.21-.08-1.44,1.66-2.35,5.29-2.35,5.29,0,0-3.91-1.2-4.78,.47-.87,1.67-1.74,2.77-1.74,2.77l-24.3,8.22s38.4,2.16,41.5,1.94c3.09-.22,5.09-2.15,5.09-2.15,0,0,2.49,2.01,6.73,.41,4.24-1.6,5.68-3.54,6.87-6.88,1.19-3.34,6.76-44.21,6.76-44.21"/>
          <path class="cls-1" d="M138.11,424.08s11.67,.65,22.66,1.21c-1.59-2.59-.85-6.33-.01-8.87l-22.65,7.67Z"/>
        </g>
      </g>
      <line class="cls-8" y1="453.01" x2="520.29" y2="453.01"/>
    </g>
  </g>
</svg>